<svg xmlns="http://www.w3.org/2000/svg" width="600.07" height="210.032" viewBox="0 0 600.07 210.032">
  <g id="Group_1" data-name="Group 1" transform="translate(-43 -45.218)">
    <g id="poker-full" transform="matrix(0.995, 0.105, -0.105, 0.995, 355.4, -20.25)">
      <path id="Path_8" data-name="Path 8" d="M86.393,240.214a35.91,35.91,0,0,1-24.8-23.613L30.25,120.118a35.825,35.825,0,0,1-1.75-11.644L8.413,122.714A20.059,20.059,0,0,0,3.664,150.6l58.67,82.758a20.043,20.043,0,0,0,24.059,6.859ZM24.944,144.269l-7.358-3.539-1.558,1.1,4.1,5.83-3.385,2.381L6.519,135.5,9.9,133.12l4,5.691L15.056,138l-.809-7.939,4.193-2.951.126,9.75,10.491,4.512Z" fill="#00cff5"/>
      <path id="Path_9" data-name="Path 9" d="M58.307,89.983a20.06,20.06,0,0,0-12.841,25.2l31.346,96.477a20.076,20.076,0,0,0,19.064,13.814,19.808,19.808,0,0,0,6.138-.975l-.114-.018a35.4,35.4,0,0,1-21.262-32.555V90.487a36.891,36.891,0,0,1,1.087-8.166Zm8.2,26.305-6.09-5.438-1.8.623,2.328,6.736-3.911,1.352-5.805-16.8,3.911-1.351,2.272,6.578,1.327-.459,1.42-7.854L65,98l-2.577,9.4,8.832,7.24Z" fill="#00cff5"/>
      <path id="Path_10" data-name="Path 10" d="M126.971,52.489v-.006h.16" fill="none" stroke="#fff" stroke-linecap="round" stroke-linejoin="round"/>
      <path id="Path_11" data-name="Path 11" d="M96.638,90.487V191.93a19.4,19.4,0,0,0,18.641,19.5,36.341,36.341,0,0,1-9.6-37.494l31.368-96.678c.8-2.469,1.877-4.178,3.14-7.178H116.517C105.517,70.081,96.638,79.487,96.638,90.487Zm25.688,8.594H117.3l-3.98-7h-2.678v7h-4v-18h4v7h2.178l3.906-7h5.127l-5.506,8.158Z" fill="#00cff5"/>
      <path id="Path_12" data-name="Path 12" d="M152.282,82.4l-31.347,96.477a20.054,20.054,0,0,0,12.707,25.15,36.192,36.192,0,0,1-3.5-10.512,35.748,35.748,0,0,1,6.1-26.859L194.9,83.9a35.7,35.7,0,0,1,6.164-6.676l-23.584-7.664a19.862,19.862,0,0,0-6.138-.975A20.081,20.081,0,0,0,152.282,82.4ZM173.7,99.462l-3.9-1.434.241-3.592L164.782,92.5l-2.132,2.9-3.9-1.434,11.521-14.7,4.159,1.529Z" fill="#00cff5"/>
      <path id="Path_13" data-name="Path 13" d="M170.277,91.142l.454-6.61-.067-.025-3.926,5.332Z" fill="#00cff5"/>
      <path id="Path_14" data-name="Path 14" d="M289.75,126.628,235.84,88.409a20.051,20.051,0,0,0-27.882,4.748L149.29,175.913a20.058,20.058,0,0,0,4.748,27.883l53.909,38.219a20.051,20.051,0,0,0,27.882-4.748L294.5,154.511A20.059,20.059,0,0,0,289.75,126.628ZM224.689,92.983l3.613,2.566-5.6,17.82-3.385-2.4,1.174-3.4-4.569-3.244-2.816,2.24-3.385-2.4ZM241.3,137.437c19.68,48.484-4.809,61.852-16.494,58.135-6.671-2.121-9.644-6.627-10.7-11.742l-7.6,12.607-9.424-6.688,8.971-10.828c-5.023.539-10.114-1.3-14.191-6.729C184.5,162.386,189.035,134.858,241.3,137.437Z" fill="#00cff5"/>
      <path id="Path_15" data-name="Path 15" d="M221.582,104.444l2.169-6.259-.06-.041-5.184,4.117Z" fill="#00cff5"/>
    </g>
    <text id="Planning_Poker" data-name="Planning Poker" transform="translate(43 206)" fill="#131515" font-size="72" font-family="Poppins-Bold, Poppins" font-weight="700"><tspan x="0" y="0">Planning Poker</tspan></text>
  </g>
</svg>
