<svg xmlns="http://www.w3.org/2000/svg" width="36" height="36">
  <g fill="none" fill-rule="evenodd">
    <path fill="#4285F4" d="M34.4365525 18.6024012c0-1.1508045-.105186-2.2582732-.3008319-3.3203427H18.5492615v6.2795543h8.9064479c-.3835782 2.0292129-1.5497402 3.748197-3.3021387 4.8996894v4.0728711h5.3483567c3.1296336-2.8264529 4.9346251-6.9880591 4.9346251-11.9317721z"/>
    <path fill="#34A853" d="M18.5492615 34.4674071c4.4683006 0 8.2143241-1.4534668 10.9526659-3.9332338l-5.3483567-4.0728711c-1.4817199.9740222-3.3778725 1.5497684-5.6043092 1.5497684-4.3105216 0-7.95837156-2.8553434-9.2598728-6.6929634H3.76011213v4.2063177c2.72291451 5.305532 8.31951007 8.9429822 14.78914937 8.9429822z"/>
    <path fill="#FBBC05" d="M9.2893887 21.3181072c-.33098523-.9740222-.51891752-2.0147677-.51891752-3.0844037 0-1.0696359.18793229-2.1103814.51891752-3.0844036v-4.20631771H3.76011213C2.63953078 13.1345322 2 15.6142992 2 18.2337035c0 2.6194044.63953078 5.0991714 1.76011213 7.2907214l5.52927657-4.2063177z"/>
    <path fill="#EA4335" d="M18.5492615 8.4563365c2.4297962 0 4.6113535.81925174 6.3265863 2.42748898l4.7466929-4.65618387C26.755872 3.60892511 23.0098485 2 18.5492615 2c-6.468938 0-12.06623486 3.63813805-14.78914937 8.94298219L9.2893887 15.1492999c1.30150124-3.83693216 4.9500524-6.6929634 9.2598728-6.6929634z"/>
  </g>
</svg>